<?xml version="1.0" encoding="UTF-8"?>
<svg width="18px" height="18px" viewBox="0 0 18 18" version="1.1" xmlns="http://www.w3.org/2000/svg"
     xmlns:xlink="http://www.w3.org/1999/xlink">
    <!-- Generator: Sketch 64 (93537) - https://sketch.com -->
    <title>开发文档</title>
    <desc>Created with Sketch.</desc>
    <g id="组件&amp;布局" stroke="none" stroke-width="1" fill-rule="evenodd" opacity="0.7">
        <g id="布局说明" transform="translate(-2052.000000, -193.000000)" fill-rule="nonzero">
            <g id="编组-14" transform="translate(775.000000, 173.000000)">
                <g id="编组-9" transform="translate(0.000000, 1.000000)">
                    <g id="编组-19" transform="translate(1277.000000, 19.000000)">
                        <g id="编组-5">
                            <g id="编组-18">
                                <path d="M15.7682912,2 L11.4618104,2 C10.4936467,2.000708 9.5822626,2.4569954 9.00160714,3.23170879 C8.42081591,2.45681453 7.50915103,2.00050578 6.54076098,2 L2.23170879,2 C1.55285467,2 1,2.55285467 1,3.23170879 L1,14.6153723 C1,15.2942264 1.55285467,15.847081 2.23170879,15.847081 L6.75611716,15.847081 C7.35539583,16.435984 8.16140634,16.7668798 9.00160714,16.7689341 C9.84180794,16.7668798 10.6478184,16.435984 11.2470971,15.847081 L15.7682912,15.847081 C16.4471453,15.847081 17,15.2942264 17,14.6153723 L17,3.23235164 C17,2.55349753 16.4471453,2.00064285 15.7682912,2.00064285 L15.7682912,2 Z M15.7682912,14.6153723 L10.9790269,14.6153723 C10.7995756,14.6151963 10.6291286,14.6939546 10.5129575,14.8307284 C10.136411,15.2754936 9.58435056,15.5335602 9.00160714,15.5372253 C8.41876003,15.5333998 7.8666822,15.2750904 7.49025674,14.8300856 C7.37381884,14.6933795 7.20311639,14.614847 7.02354454,14.6153723 L2.23170879,14.6153723 L2.23170879,3.23235164 L6.53818956,3.23235164 C7.55687563,3.23447459 8.38205599,4.05994237 8.38382418,5.07862911 L8.38382418,10.3095343 C8.38382418,10.6489512 8.65897595,10.924103 8.99839286,10.924103 C9.33780978,10.924103 9.61296155,10.6489512 9.61296155,10.3095343 L9.61296155,5.07862911 C9.61472974,4.05994237 10.4399101,3.23447459 11.4585962,3.23235164 L15.7682912,3.23235164 L15.7682912,14.6160151 L15.7682912,14.6153723 Z"
                                      id="形状"></path>
                            </g>
                        </g>
                    </g>
                </g>
            </g>
        </g>
    </g>
</svg>