<?xml version="1.0" encoding="UTF-8"?>
<svg width="18px" height="18px" viewBox="0 0 18 18" version="1.1" xmlns="http://www.w3.org/2000/svg"
     xmlns:xlink="http://www.w3.org/1999/xlink">
    <!-- Generator: Sketch 64 (93537) - https://sketch.com -->
    <title>消息中心</title>
    <desc>Created with Sketch.</desc>
    <g id="组件&amp;布局" stroke="none" stroke-width="1"  fill-rule="evenodd" opacity="0.7">
        <g id="布局说明" transform="translate(-2100.000000, -193.000000)"  fill-rule="nonzero">
            <g id="编组-14" transform="translate(775.000000, 173.000000)">
                <g id="编组-9" transform="translate(0.000000, 1.000000)">
                    <g id="编组-19" transform="translate(1325.000000, 19.000000)">
                        <g id="编组-5">
                            <g id="编组-18">
                                <path d="M15.64,2.004125 L2.56,2.004125 C2.56,2.004125 1.112,1.900125 1.008,3.332125 C1,4.772125 1,12.020125 1,12.020125 C1,12.020125 1.08,13.196125 2.344,13.292125 L6.84,13.292125 C6.84,13.292125 8.616,15.668125 9,15.652125 C9.48,15.708125 11.2,13.300125 11.2,13.300125 L15.656,13.300125 C15.656,13.300125 16.864,13.284125 17,12.004125 L17,3.316125 C17,3.316125 16.992,2.132125 15.64,2.004125 M15.9200031,3.620125 C15.9200031,3.620125 15.912,11.228125 15.9200031,11.772125 C15.872,12.316125 15.416,12.276125 15.416,12.276125 L10.976,12.276125 C10.688,12.276125 10.336,12.860125 10.336,12.860125 L8.992,14.508125 C8.992,14.508125 7.624,12.556125 7.432,12.404125 C7.264,12.236125 7.112,12.268125 7.112,12.268125 C7.112,12.268125 3.216,12.276125 2.64,12.268125 C2.056,12.204125 2.16,11.668125 2.16,11.668125 L2.16,3.548125 C2.2,3.076125 2.688,3.116125 2.688,3.116125 L15.36,3.116125 C15.928,3.092125 15.9200031,3.620125 15.9200031,3.620125 M5.264,5.740125 L12.728,5.740125 L12.728,6.804125 L5.264,6.804125 L5.264,5.740125 M5.264,8.404125 L12.728,8.404125 L12.728,9.468125 L5.264,9.468125 L5.264,8.404125"
                                      id="形状"></path>
                            </g>
                        </g>
                    </g>
                </g>
            </g>
        </g>
    </g>
</svg>