<?xml version="1.0" encoding="UTF-8"?>
<svg width="30px" height="30px" viewBox="0 0 30 30" version="1.1" xmlns="http://www.w3.org/2000/svg" xmlns:xlink="http://www.w3.org/1999/xlink">
    <!-- Generator: Sketch 64 (93537) - https://sketch.com -->
    <title>业务协同</title>
    <desc>Created with Sketch.</desc>
    <g id="组件&amp;布局" stroke="none" stroke-width="1"  fill-rule="evenodd">
        <g id="顶部导航栏说明" transform="translate(-1386.000000, -432.000000)" fill-rule="nonzero">
            <g id="编组-39备份" transform="translate(1349.000000, 402.000000)">
                <g id="编组-8" transform="translate(37.000000, 30.000000)">
                    <g id="公文包">
                        <rect id="矩形"  opacity="0" x="0" y="0" width="30" height="30"></rect>
                        <path d="M16.4593036,2.50985 C18.1586875,2.50985 19.5576573,3.67938806 19.6554162,5.16656229 L19.6608727,5.33306774 L19.66,7.012 L23.9634309,7.01240827 C25.6093209,7.01240827 26.965651,8.25522876 27.1449028,9.85335117 L27.1599306,10.0323374 L27.165,10.2139773 L27.165,23.7082809 C27.165,25.4109058 25.8202948,26.8102814 24.144231,26.9047655 L23.9634309,26.90985 L5.96670551,26.90985 C4.26392696,26.90985 2.86456725,25.5652504 2.77008439,23.8890919 L2.765,23.7082809 L2.765,10.2139773 C2.765,8.51130859 4.10974793,7.11184665 5.78589624,7.01735661 L5.96670551,7.01227183 L10.255,7.012 L10.2558926,5.33306774 C10.2558926,3.88285698 11.5043379,2.69158968 13.0868812,2.52880767 L13.270913,2.5146332 L13.4575981,2.50985 L16.4593036,2.50985 Z M11.783,14.746 L4.509,14.746 L4.50921831,23.7084174 C4.50921831,24.382481 5.17386217,25.0901413 5.85254513,25.171063 L5.97980387,25.17873 L23.9763928,25.17873 C24.6505986,25.17873 25.3583752,24.5141953 25.4393103,23.8354091 L25.4469786,23.7081284 L25.46,14.746 L18.186,14.746 L18.1864895,16.2172519 C18.1864895,17.1048175 17.5048918,17.837207 16.6326852,17.911842 L16.4856367,17.9181047 L13.4839312,17.9181047 C12.5963656,17.9181047 11.8639761,17.236507 11.7893411,16.3643004 L11.7830785,16.2172519 L11.783,14.746 Z M16.611,11.575 L13.331,11.575 L13.331,16.344 L16.611,16.355 L16.611,11.575 Z M23.9634309,8.74352823 L5.95360716,8.74352823 C5.27940812,8.74352823 4.57174647,9.40805721 4.49082502,10.086721 L4.483,10.2139773 L4.483,13.185 L11.756,13.185 L11.7568818,11.7148301 C11.7568818,10.8206882 12.4444574,10.0941828 13.322651,10.0201854 L13.4706964,10.0139773 L16.4724019,10.0139773 C17.3599903,10.0139773 18.092237,10.6954743 18.1668569,11.5677657 L18.1731182,11.7148301 L18.173,13.172 L25.445,13.172 L25.4337436,10.2139773 C25.4337436,9.53988088 24.7691908,8.83212871 24.0906603,8.75119627 L23.9634309,8.74352823 Z M16.4724019,4.14969082 L13.4706964,4.14969082 C12.7693667,4.14969082 12.0905234,4.55881849 12.0084075,4.98640758 L12.0001109,5.0720558 L12,6.999 L17.942,6.999 L17.9428511,5.0720558 C17.9428511,4.65155212 17.3016588,4.20882049 16.6110148,4.15512163 L16.4724019,4.14969082 Z" id="形状" ></path>
                    </g>
                </g>
            </g>
        </g>
    </g>
</svg>