<?xml version="1.0" encoding="UTF-8"?>
<svg width="16px" height="16px" viewBox="0 0 16 16" version="1.1" xmlns="http://www.w3.org/2000/svg" xmlns:xlink="http://www.w3.org/1999/xlink">
    <!-- Generator: Sketch 64 (93537) - https://sketch.com -->
    <title>指数管理</title>
    <desc>Created with Sketch.</desc>
    <g id="组件&amp;布局&amp;示例页面" stroke="none" stroke-width="1" fill-rule="evenodd">
        <g id="步骤操作1" transform="translate(-22.000000, -72.000000)">
            <g id="编组-26" transform="translate(0.000000, 56.000000)">
                <g id="编组-23" transform="translate(0.000000, 4.000000)">
                    <g id="编组-42" transform="translate(22.000000, 12.000000)">
                        <g id="编组-41">
                            <path d="M13.9036341,1.78947368 C14.7756627,1.78947368 15.4825815,2.4963925 15.4825815,3.36842105 C15.4825815,4.2404496 14.7756627,4.94736842 13.9036341,4.94736842 C13.8102025,4.94736842 13.7186663,4.93925328 13.6296918,4.9236894 L10.9490517,10.8247809 C11.3066152,11.114251 11.5352131,11.5567453 11.5352131,12.0526316 C11.5352131,12.9246601 10.8282943,13.6315789 9.9562657,13.6315789 C9.08423715,13.6315789 8.37731834,12.9246601 8.37731834,12.0526316 C8.37731834,11.7164841 8.4823615,11.4048708 8.66141341,11.1488261 L5.91467766,7.94434862 C5.7049019,8.04739509 5.46892066,8.10526316 5.2194236,8.10526316 C5.10578916,8.10526316 4.99495842,8.0932591 4.88813028,8.07044989 L3.09846083,11.651341 C3.43058582,11.9408026 3.64047623,12.3669427 3.64047623,12.8421053 C3.64047623,13.7141338 2.93355741,14.4210526 2.06152886,14.4210526 C1.18950031,14.4210526 0.482581493,13.7141338 0.482581493,12.8421053 C0.482581493,11.9700767 1.18950031,11.2631579 2.06152886,11.2631579 C2.17480708,11.2631579 2.28529915,11.2750868 2.39181741,11.297757 L4.18249163,7.7170801 C3.85036664,7.42761842 3.64047623,7.00147837 3.64047623,6.52631579 C3.64047623,5.65428724 4.34739505,4.94736842 5.2194236,4.94736842 C6.09145215,4.94736842 6.79837097,5.65428724 6.79837097,6.52631579 C6.79837097,6.86246325 6.6933278,7.17407656 6.5142759,7.43012131 L9.26101164,10.6345987 C9.4707874,10.5315523 9.70676865,10.4736842 9.9562657,10.4736842 C10.0496973,10.4736842 10.1412336,10.4817993 10.230208,10.4973632 L12.9115968,4.59687743 C12.5536038,4.3074191 12.3246868,3.86465329 12.3246868,3.36842105 C12.3246868,2.4963925 13.0316056,1.78947368 13.9036341,1.78947368 Z" id="形状结合" fill-rule="nonzero"></path>
                        </g>
                    </g>
                </g>
            </g>
        </g>
    </g>
</svg>
