<?xml version="1.0" encoding="UTF-8"?>
<svg width="30px" height="30px" viewBox="0 0 30 30" version="1.1" xmlns="http://www.w3.org/2000/svg"
     xmlns:xlink="http://www.w3.org/1999/xlink">
    <!-- Generator: Sketch 64 (93537) - https://sketch.com -->
    <title>IOT设备管理</title>
    <desc>Created with Sketch.</desc>
    <g id="组件&amp;布局&amp;示例页面" stroke="none" stroke-width="1" fill-rule="evenodd">
        <g id="IOT" transform="translate(3.000000, 5.000000)" fill-rule="nonzero">
            <path d="M11.6536965,18.4939348 L13.7564851,18.4939348 L13.7564851,20.8670008 L11.6536965,20.8670008 L11.6536965,18.4939348 L11.6536965,18.4939348 Z M19.9092088,21.3671824 C19.9092088,21.7171497 19.6222438,22 19.2671855,22 L5.95979248,22 C5.60473411,22 5.31776913,21.7171497 5.31776913,21.3671824 L5.31776913,21.3671824 C5.31776913,21.0172151 5.60473411,20.7343648 5.95979248,20.7343648 L19.2671855,20.7343648 C19.6222438,20.7343648 19.9092088,21.0172151 19.9092088,21.3671824 L19.9092088,21.3671824 Z M6.27885863,5.72092685 L6.74902724,5.72092685 L7.22405966,5.72092685 L7.22405966,12.6020193 L6.75389105,12.6020193 L6.27885863,12.6020193 L6.27885863,5.72092685 Z M10.1679428,11.7079668 C9.70711883,11.1568655 9.4773022,10.433958 9.4773022,9.53792277 C9.4773022,8.63924436 9.70711883,7.9136937 10.1679428,7.36259238 C10.6287668,6.81149106 11.2312912,6.53395802 11.9755161,6.53395802 C12.7245039,6.53395802 13.3282191,6.81016947 13.7878523,7.36259238 C14.2474856,7.91501528 14.4773022,8.64056595 14.4773022,9.53792277 C14.4773022,10.433958 14.2474856,11.1568655 13.7878523,11.7079668 C13.3282191,12.2590681 12.7245039,12.533958 11.9755161,12.533958 C11.2312912,12.533958 10.6287668,12.2590681 10.1679428,11.7079668 L10.1679428,11.7079668 Z M13.0647521,10.9835307 C13.3411206,10.6165791 13.4773022,10.1345278 13.4773022,9.53737682 C13.4773022,8.93908622 13.3401193,8.45475574 13.0637508,8.08666457 C12.7883836,7.7185734 12.4259003,7.53395802 11.9763009,7.53395802 C11.5287041,7.53395802 11.1662208,7.7185734 10.8908536,8.08666457 C10.6154865,8.45475574 10.4773022,8.93908622 10.4773022,9.53737682 C10.4773022,10.1333882 10.6154865,10.6154395 10.8908536,10.9835307 C11.1662208,11.3516218 11.5287041,11.533958 11.9763009,11.533958 C12.4259003,11.533958 12.7883836,11.3504822 13.0647521,10.9835307 Z M17.1627756,6.54550737 L14.8022049,6.54550737 L14.8022049,6.13321711 L14.8022049,5.72092685 L20.4685473,5.72092685 L20.4685473,6.13321711 L20.4685473,6.54550737 L18.1079767,6.54550737 L18.1079767,12.6036173 L17.637808,12.6036173 L17.1627756,12.6036173 L17.1627756,6.54550737 Z M23.151751,0 L1.84824903,0 C0.82846952,0 0,0.814992373 0,1.82174766 L0,16.6737851 C0,17.6789424 0.826848249,18.4955328 1.84824903,18.4955328 L11.2013619,18.4955328 L23.151751,18.4955328 C24.1715305,18.4955328 25,17.6805404 25,16.6737851 L25,1.82014963 C25,0.814992373 24.1715305,0 23.151751,0 Z M23.3349546,15.2946902 C23.3349546,16.1528292 22.6183528,16.8479698 21.7331388,16.8479698 L11.3732166,16.8479698 L3.26686122,16.8479698 C2.38164721,16.8479698 1.6650454,16.1528292 1.6650454,15.2946902 L1.62937743,3.21043074 C1.62937743,2.35229171 2.34597925,1.65715116 3.23119326,1.65715116 L21.6990921,1.65715116 C22.5843061,1.65715116 23.3009079,2.35229171 23.3009079,3.21043074 L23.3349546,15.2946902 Z"
                  id="形状"></path>
        </g>
    </g>
</svg>
