<?xml version="1.0" encoding="UTF-8"?>
<svg width="30px" height="30px" viewBox="0 0 30 30" version="1.1" xmlns="http://www.w3.org/2000/svg" xmlns:xlink="http://www.w3.org/1999/xlink">
    <!-- Generator: Sketch 64 (93537) - https://sketch.com -->
    <title>消息协同</title>
    <desc>Created with Sketch.</desc>
    <g id="组件&amp;布局" stroke="none" stroke-width="1"  fill-rule="evenodd">
        <g id="顶部导航栏说明" transform="translate(-1566.000000, -432.000000)">
            <g id="编组-39备份" transform="translate(1349.000000, 402.000000)">
                <g id="编组-42" transform="translate(217.000000, 30.000000)">
                    <g id="编组-41">
                        <rect opacity="0" id="矩形" x="0" y="0" width="30" height="30"></rect>
                        <path d="M25.6006677,4.12841013 L4.37215942,4.12841013 C2.83783653,4.12841013 1.59375,5.4132277 1.59375,6.98859445 L1.59375,23.0061189 C1.59375,24.581207 2.83784012,25.8657905 4.37215942,25.8657905 L25.6005396,25.8657905 C27.1354508,25.8657905 28.3801025,24.5812279 28.3801025,23.0061189 L28.3840247,13.4177424 C28.3840247,12.8998575 27.9676241,12.47732 27.4531897,12.47732 C26.938734,12.47732 26.5223035,12.8998534 26.5223035,13.4177424 L26.5223035,23.0286518 C26.5223035,23.4921578 26.1447694,23.8696919 25.6812891,23.8696919 L4.29151245,23.8696919 C3.82794446,23.8696919 3.45036987,23.492147 3.45036987,23.0286518 L3.45036987,6.89574533 L3.46395533,6.74476881 C3.53534412,6.35279228 3.87948414,6.05437204 4.29151245,6.05437204 L25.070625,6.05403513 L15.0225,15.0690351 L8.44732749,9.61632224 C8.24157855,9.4156932 7.99177998,9.30401804 7.71408691,9.30401804 C7.44403602,9.30401804 7.18873211,9.40969291 6.99795483,9.60047018 C6.80718145,9.79035731 6.70142578,10.0458525 6.70142578,10.3166792 C6.70142578,10.5874605 6.80759052,10.8420126 7.0012552,11.0352911 L14.1338098,16.9505207 L14.1128655,16.9510172 C14.1608503,17.0338193 14.2157462,17.1060204 14.2780291,17.1682675 C14.4677867,17.3580252 14.7292372,17.4662519 14.9978723,17.4662519 C15.0766776,17.4662519 15.1553424,17.4570298 15.2318546,17.4388177 C15.4561953,17.4010004 15.6497882,17.3074162 15.8074944,17.150802 C15.861156,17.0970347 15.9094338,17.0359251 15.9497551,16.9712194 L16.0267371,16.8841903 L18.275689,14.8685029 L18.275625,14.8534101 L28.0420256,6.10615947 L28.106235,5.77171783 L28.0676034,5.69386505 C27.5892396,4.73003128 26.6436236,4.12841013 25.6006677,4.12841013 Z" id="路径"  fill-rule="nonzero"></path>
                    </g>
                </g>
            </g>
        </g>
    </g>
</svg>