<?xml version="1.0" encoding="UTF-8"?>
<svg width="30px" height="30px" viewBox="0 0 30 30" version="1.1" xmlns="http://www.w3.org/2000/svg" xmlns:xlink="http://www.w3.org/1999/xlink">
    <!-- Generator: Sketch 64 (93537) - https://sketch.com -->
    <title>数字驾驶舱</title>
    <desc>Created with Sketch.</desc>
    <g id="组件&amp;布局" stroke="none" stroke-width="1"  fill-rule="evenodd">
        <g id="顶部导航栏说明" transform="translate(-544.000000, -334.000000)">
            <g id="编组-39备份-2" transform="translate(507.000000, 304.000000)">
                <g id="编组-42" transform="translate(37.000000, 30.000000)">
                    <g id="编组-41">
                        <rect opacity="0" id="矩形" x="0" y="0" width="30" height="30"></rect>
                        <path d="M14.9970559,1.875 C22.2337651,1.875 28.1220559,7.76329071 28.125,15 C28.125,22.2367093 22.2367093,28.125 15,28.125 C7.76329071,28.125 1.875,22.2367093 1.875,15 C1.875,7.76329071 7.76034657,1.875 14.9970559,1.875 Z M4.9192463,9.79180686 C4.10960633,11.3522039 3.6473755,13.1216353 3.6473755,15 C3.6473755,20.9589502 8.26673957,25.8580081 14.1108681,26.3114065 L14.1108681,26.3114065 L14.1138122,26.3114065 L14.1138122,22.5988392 C10.3099764,22.1572174 7.34816622,18.9186575 7.34816622,15 C7.34816622,13.9636608 7.55720054,12.9773721 7.931107,12.0735195 L7.931107,12.0735195 Z M25.5047106,10.7074361 L22.2543742,12.5740242 C22.5105148,13.3365579 22.6518338,14.1520861 22.6518338,15 C22.6518338,18.9186575 19.6900236,22.1572174 15.8861878,22.5988392 L15.8861878,22.5988392 L15.8861878,26.3114065 C21.7303163,25.8580081 26.3496803,20.9589502 26.3496803,15 C26.3496803,13.480821 26.0493775,12.0323015 25.5047106,10.7074361 L25.5047106,10.7074361 Z M15,9.15587147 C13.0450875,9.15587147 11.3109859,10.1215511 10.2510935,11.6024563 C9.90074024,12.0911844 9.62693472,12.6329071 9.43850942,13.2129038 C9.25891655,13.7781797 9.15881561,14.3758412 9.15881561,15 C9.15881561,17.9205922 11.3109859,20.346568 14.1138122,20.7764132 C14.4023385,20.8205754 14.6996972,20.8441285 15,20.8441285 C15.3003028,20.8441285 15.5976615,20.8205754 15.8861878,20.7764132 C18.68607,20.346568 20.8411844,17.9205922 20.8411844,15 C20.8411844,14.4788863 20.7705249,13.9754374 20.6439266,13.4955417 C20.4894437,12.9182642 20.2471584,12.3681574 19.9255552,11.8644852 C18.889216,10.2363728 17.0697342,9.15587147 15,9.15587147 Z M13.8812248,13.1216353 C14.1049798,13.1216353 14.3140141,13.2099596 14.472998,13.3689435 L14.472998,13.3689435 L15.9539031,14.8498486 L17.4348082,13.3689435 C17.6467867,13.156965 17.9559219,13.0745289 18.2444482,13.1510767 C18.5300303,13.2276245 18.7567295,13.4572678 18.8362214,13.7457941 C18.9127692,14.0343203 18.8303331,14.3434556 18.6183546,14.5554341 L18.6183546,14.5554341 L16.5456763,16.6310565 C16.3896366,16.7900404 16.174714,16.8783647 15.9539031,16.8783647 C15.7330922,16.8783647 15.5181696,16.7870962 15.3621299,16.6310565 L15.3621299,16.6310565 L13.8812248,15.1501514 L12.4003197,16.6310565 C12.1883412,16.843035 11.8792059,16.9254711 11.5906797,16.8489233 C11.3021534,16.7694314 11.0754542,16.5427322 10.9989065,16.2542059 C10.9223587,15.9656797 11.0047948,15.6565444 11.2167732,15.4445659 L11.2167732,15.4445659 L13.2894515,13.3689435 C13.4454913,13.2099596 13.6604139,13.1216353 13.8812248,13.1216353 Z M14.9970559,3.6473755 C11.252103,3.6473755 7.92816285,5.47274563 5.85842867,8.2814603 L5.85842867,8.2814603 L8.80551817,10.5131225 C10.1980989,8.59648385 12.4533143,7.34816622 14.9970559,7.34816622 C17.735111,7.34816622 20.1434219,8.79374159 21.4947847,10.9606326 L21.4947847,10.9606326 L24.7039031,9.11759758 C22.7107167,5.8407638 19.1041386,3.6473755 14.9970559,3.6473755 Z" id="形状结合" fill-rule="nonzero"></path>
                    </g>
                </g>
            </g>
        </g>
    </g>
</svg>