<?xml version="1.0" encoding="UTF-8"?>
<svg width="30px" height="30px" viewBox="0 0 30 30" version="1.1" xmlns="http://www.w3.org/2000/svg"
     xmlns:xlink="http://www.w3.org/1999/xlink">
    <!-- Generator: Sketch 64 (93537) - https://sketch.com -->
    <title>代理服务</title>
    <desc>Created with Sketch.</desc>
    <g id="组件&amp;布局&amp;示例页面" stroke="none" stroke-width="1" fill-rule="evenodd">
        <g id="顶部导航栏说明" transform="translate(-1239.000000, -619.000000)" fill-rule="nonzero">
            <g id="编组-39" transform="translate(1015.000000, 333.000000)">
                <g id="编组-42备份-3" transform="translate(224.000000, 286.000000)">
                    <g id="编组-41">
                        <rect id="矩形" opacity="0" x="0" y="0" width="30" height="30"></rect>
                        <path d="M5.54060487,18.8216274 C4.8555365,18.8216274 4.1723357,18.6517604 3.65900268,18.1384266 L0.920604967,15.2282826 L0.920604799,15.2282824 C-0.0716682306,14.2820153 -0.108962415,12.7105189 0.837304155,11.7182432 C0.864408323,11.6898212 0.892183125,11.6620465 0.920605072,11.6349422 L3.65900279,8.89840391 L3.65900293,8.89840376 C4.60527005,7.90613073 6.17676641,7.86883655 7.16904217,8.81510311 C7.19746412,8.84220728 7.22523884,8.86998209 7.25234309,8.89840403 L9.98888143,11.6349424 C11.0155502,12.6616111 11.0155502,14.2016129 9.98888143,15.2282708 L7.25234309,17.9666685 C6.90887511,18.6517369 6.22567432,18.8216274 5.54060867,18.8216274 L5.54060487,18.8216274 Z M5.02727186,16.9400252 L5.02727189,16.9400252 C5.34201522,17.2709533 5.8654381,17.2840756 6.19636622,16.969332 C6.20637853,16.9598094 6.21615059,16.9500373 6.22567328,16.9400249 L8.96221162,14.2016272 C9.3056796,13.6882942 9.3056796,13.1749585 8.96221162,12.8333581 L6.22567328,10.0949603 L6.22567327,10.0949603 C5.91092993,9.7640322 5.38750706,9.75090992 5.05657894,10.0656533 C5.04656663,10.0751759 5.03679456,10.0849479 5.02727187,10.0949603 L2.11901458,12.833358 L2.11901454,12.8333581 C1.78808642,13.1481014 1.77496414,13.6715243 2.08970775,14.0024524 C2.09923036,14.0124647 2.10900242,14.0222368 2.11901481,14.0317595 L5.02727211,16.9400168 L5.02727186,16.9400252 Z M22.6523627,8.55494511 L19.2288938,8.55494511 C17.8606247,8.55494511 16.6622233,7.3584113 16.6622233,5.98827455 L16.6622233,2.5666651 C16.6622233,1.19839593 17.8606247,-5.46875636e-06 19.2288938,-5.46875636e-06 L22.6523627,-5.46875636e-06 C24.0206318,-5.46875636e-06 25.2190332,1.19839593 25.2190332,2.5666651 L25.2190332,5.98827455 C25.2190332,7.35840856 24.1923645,8.55494511 22.6523627,8.55494511 Z M19.2288938,1.71172621 C18.7155608,1.71172621 18.3739604,2.05332661 18.3739604,2.56665963 L18.3739604,5.98826908 C18.3739604,6.5016021 18.7155608,6.84507007 19.2288938,6.84507007 L22.6523627,6.84507007 C23.1656957,6.84507007 23.5072961,6.5016021 23.5072961,5.98826908 L23.5072961,2.56665963 C23.5072961,2.05332661 23.1656957,1.71172621 22.6523627,1.71172621 L19.2288938,1.71172621 Z M22.6523627,27.3784319 L19.2288938,27.3784319 C17.8606247,27.3784319 16.6622233,26.1800305 16.6622233,24.8117613 L16.6622233,21.3882925 C16.6622233,20.0200233 17.8606247,18.8216219 19.2288938,18.8216219 L22.6523627,18.8216219 C24.0206318,18.8216219 25.2190332,20.0200233 25.2190332,21.3882925 L25.2190332,24.8117613 C25.2190332,26.1800305 24.1923645,27.3784319 22.6523627,27.3784319 Z M19.2288938,20.5333536 C18.7155608,20.5333536 18.3739604,20.874954 18.3739604,21.388287 L18.3739604,24.8117558 C18.3739604,25.3250888 18.7155608,25.6666892 19.2288938,25.6666892 L22.6523627,25.6666892 C23.1656957,25.6666892 23.5072961,25.3250888 23.5072961,24.8117558 L23.5072961,21.388287 C23.5072961,20.874954 23.1656957,20.5333536 22.6523627,20.5333536 L19.2288938,20.5333536 Z M17.5190243,23.954963 L12.3856941,23.954963 C11.0155601,23.954963 9.81902352,22.7584292 9.81902352,21.3882925 L9.81902352,5.98827455 C9.81902352,4.62000538 11.0155573,3.42160398 12.3856941,3.42160398 L17.5190243,3.42160398 C18.0323573,3.42160398 18.3739577,3.76507196 18.3739577,4.27840498 C18.3739577,4.791738 18.0323573,5.1333384 17.5190243,5.1333384 L12.3856941,5.1333384 C12.0422261,5.1333384 11.5288931,5.47493879 11.5288931,5.98827181 L11.5288931,21.3882897 C11.5288931,21.9016228 11.8723611,22.2450907 12.3856941,22.2450907 L17.5190243,22.2450907 C18.0323573,22.2450907 18.3739577,22.5866911 18.3739577,23.1000241 C18.3739577,23.6133572 18.0323573,23.954963 17.5190243,23.954963 L17.5190243,23.954963 Z"
                              id="形状"></path>
                    </g>
                </g>
            </g>
        </g>
    </g>
</svg>