<?xml version="1.0" encoding="UTF-8"?>
<svg width="30px" height="30px" viewBox="0 0 30 30" version="1.1" xmlns="http://www.w3.org/2000/svg" xmlns:xlink="http://www.w3.org/1999/xlink">
    <!-- Generator: Sketch 64 (93537) - https://sketch.com -->
    <title>场景大屏</title>
    <desc>Created with Sketch.</desc>
    <g id="组件&amp;布局" stroke="none" stroke-width="1"  fill-rule="evenodd">
        <g id="顶部导航栏说明" transform="translate(-634.000000, -334.000000)">
            <g id="编组-39备份-2" transform="translate(507.000000, 304.000000)">
                <g id="编组-42备份-5" transform="translate(127.000000, 30.000000)">
                    <g id="编组-41">
                        <rect opacity="0" id="矩形" x="0" y="0" width="30" height="30"></rect>
                        <path d="M24.8521936,25.643093 C24.8521936,26.0849208 24.4940214,26.443093 24.0521936,26.443093 L5.94617461,26.443093 C5.50434681,26.443093 5.14617461,26.0849208 5.14617461,25.643093 C5.14617461,25.2012652 5.50434681,24.843093 5.94617461,24.843093 L24.0521936,24.843093 C24.4940214,24.843093 24.8521936,25.2012652 24.8521936,25.643093 Z M28,4 L28,22.472353 C24.8505617,21.3790247 20.1998368,20.9678027 14.9991841,20.9678027 C9.98456035,20.9678027 5.4790686,21.3496517 2.34268499,22.3597565 L2,22.4739848 L2,4 C5.14617461,5.09332831 9.80016318,5.5045503 14.9991841,5.5045503 C20.0138078,5.5045503 24.5192996,5.12270131 27.6556832,4.11422833 L27.9983682,4 L28,4 Z M26.1348145,6.44285445 L25.7627565,6.52118245 C22.8825708,7.10211511 19.2713237,7.36973577 14.9991841,7.36973577 C10.7270445,7.36973577 7.11742923,7.10211511 4.23561162,6.52118245 L3.86355363,6.44285445 L3.86355363,20.0294985 L4.23561162,19.9528024 C6.98525074,19.397979 10.399046,19.1287265 14.4198833,19.104249 L14.9991841,19.104249 C19.2713237,19.104249 22.8809389,19.3718697 25.7627565,19.9528024 L26.1348145,20.0294985 L26.1348145,6.44285445 Z M12.3996736,10.0214649 L18.5565807,13.4417875 L12.3996736,16.9991841 L12.3996736,10.0214649 L12.3996736,10.0214649 Z" id="形状"  fill-rule="nonzero"></path>
                    </g>
                </g>
            </g>
        </g>
    </g>
</svg>