<?xml version="1.0" encoding="UTF-8"?>
<svg width="16px" height="16px" viewBox="0 0 16 16" version="1.1" xmlns="http://www.w3.org/2000/svg" xmlns:xlink="http://www.w3.org/1999/xlink">
    <!-- Generator: Sketch 64 (93537) - https://sketch.com -->
    <title>进入</title>
    <desc>Created with Sketch.</desc>
    <g id="组件&amp;布局" stroke="none" stroke-width="1" fill="none" fill-rule="evenodd">
        <g id="顶部导航栏说明" transform="translate(-1498.000000, -877.000000)" fill-rule="nonzero">
            <g id="编组-7" transform="translate(1366.000000, 865.000000)">
                <g id="展开-下箭头-01" transform="translate(140.000000, 20.000000) rotate(-90.000000) translate(-140.000000, -20.000000) translate(132.000000, 12.000000)">
                    <rect id="矩形" fill="#000000" opacity="0" x="0" y="0" width="16" height="16"></rect>
                    <path d="M12.82,4.96667188 C12.9521502,4.82084107 13.1538707,4.75963702 13.3447744,4.80745001 C13.5356781,4.855263 13.684737,5.0043219 13.73255,5.19522558 C13.780363,5.38612926 13.7191589,5.58784981 13.5733281,5.72 L8.38667188,10.9066719 C8.1784972,11.1143528 7.8415028,11.1143528 7.63332813,10.9066719 L2.45332813,5.72667188 C2.3175672,5.59209998 2.26391218,5.39532282 2.3125744,5.21046446 C2.36123662,5.02560609 2.50482313,4.88075091 2.68924628,4.83046445 C2.87366943,4.78017799 3.07091095,4.83209997 3.20667188,4.96667188 L8,9.78 L12.82,4.96667188 Z" id="路径" fill="#9BA2AB"></path>
                </g>
            </g>
        </g>
    </g>
</svg>