<?xml version="1.0" encoding="UTF-8"?>
<svg width="16px" height="16px" viewBox="0 0 16 16" version="1.1" xmlns="http://www.w3.org/2000/svg" xmlns:xlink="http://www.w3.org/1999/xlink">
    <!-- Generator: Sketch 64 (93537) - https://sketch.com -->
    <title>退出登录</title>
    <desc>Created with Sketch.</desc>
    <g id="组件&amp;布局" stroke="none" stroke-width="1" fill="none" fill-rule="evenodd">
        <g id="顶部导航栏说明" transform="translate(-1378.000000, -917.000000)" fill="#4B5265" fill-rule="nonzero">
            <g id="编组-7备份" transform="translate(1366.000000, 905.000000)">
                <g id="编组-6" transform="translate(12.000000, 12.000000)">
                    <path d="M12.1720969,0.999984464 C13.1218106,0.999984464 13.8479115,1.69911444 13.8479115,2.61329679 L13.8479115,2.61329679 L13.8479115,3.68897816 C13.8479115,4.01155673 13.6244695,4.22674893 13.2893066,4.22674893 C12.9541437,4.22674893 12.7307018,4.01157227 12.7307018,3.68897816 L12.7307018,3.68897816 L12.7307018,2.61329679 C12.7307018,2.29071822 12.5072599,2.07552601 12.1720969,2.07552601 L12.1720969,2.07552601 L2.67581454,2.07552601 C2.34065163,2.07552601 2.11720969,2.29071822 2.11720969,2.61329679 L2.11720969,2.61329679 L2.11720969,13.3692871 C2.11720969,13.6918657 2.34065163,13.9070579 2.67581454,13.9070579 L2.67581454,13.9070579 L12.1720969,13.9070579 C12.5072599,13.9070579 12.7307018,13.6918657 12.7307018,13.3692871 L12.7307018,13.3692871 L12.7307018,12.2936057 C12.7307018,11.9710272 12.9541437,11.755835 13.2893066,11.755835 C13.6244695,11.755835 13.8479115,11.9710116 13.8479115,12.2936057 L13.8479115,12.2936057 L13.8479115,13.3692871 C13.8479115,14.2834695 13.1217951,14.9825994 12.1720969,14.9825994 L12.1720969,14.9825994 L2.67581454,14.9825994 C1.72627175,14.9825994 1,14.2834695 1,13.3692871 L1,13.3692871 L1,2.61329679 C1,1.69911444 1.72625621,0.999984464 2.67581454,0.999984464 L2.67581454,0.999984464 Z M11.2225542,4.92590998 C11.4459806,4.71071777 11.7811435,4.71071777 12.0045854,4.92590998 L12.0045854,4.92590998 L14.7977495,7.61490368 C15.0211914,7.77626287 15.0211914,8.09884144 14.8536799,8.26020064 C14.7977495,8.26020064 14.7977495,8.31403365 14.7977495,8.31403365 L14.7977495,8.31403365 L12.0047252,11.0567205 C11.8930043,11.1642467 11.7812988,11.2180797 11.6136319,11.2180797 C11.4461204,11.2180797 11.334415,11.1643865 11.2226784,11.0567205 C10.9992365,10.8416681 10.9992365,10.5189498 11.2226784,10.3037575 L11.2226784,10.3037575 L13.0658802,8.52908603 L7.7032737,8.52908603 C7.3681108,8.52908603 7.14466886,8.31403365 7.14466886,7.99131525 C7.14466886,7.66859686 7.3681108,7.45354448 7.7032737,7.45354448 L7.7032737,7.45354448 L13.0658802,7.45354448 L11.2225542,5.67887296 C10.9991122,5.46368075 10.9991122,5.14096236 11.2225542,4.92590998 Z" id="形状结合"></path>
                </g>
            </g>
        </g>
    </g>
</svg>