<?xml version="1.0" encoding="UTF-8"?>
<svg width="16px" height="16px" viewBox="0 0 16 16" version="1.1" xmlns="http://www.w3.org/2000/svg"
     xmlns:xlink="http://www.w3.org/1999/xlink">
    <!-- Generator: Sketch 64 (93537) - https://sketch.com -->
    <title>用户</title>
    <desc>Created with Sketch.</desc>
    <g id="组件&amp;布局" stroke="none" stroke-width="1" fill="none" fill-rule="evenodd">
        <g id="顶部导航栏说明" transform="translate(-1378.000000, -877.000000)" fill="#4B5265" fill-rule="nonzero">
            <g id="编组-7" transform="translate(1366.000000, 865.000000)">
                <g id="编组-6" transform="translate(12.000000, 12.000000)">
                    <g id="用户-(1)" transform="translate(1.000000, 1.000000)">
                        <path d="M6.99701829,0.882200063 C8.48040986,0.882200063 10.0530602,2.13201555 10.0530602,3.06512445 L10.0530602,5.24865342 C10.0530602,6.08913709 9.70371977,7.69760914 8.76647495,8.4351484 C8.52795226,8.62368287 8.40349011,8.92299388 8.43986142,9.22480567 C8.47542203,9.52740068 8.66600385,9.78955716 8.94258794,9.91605292 L12.7432455,11.7194351 C12.7730214,11.7334917 13.1074945,11.7897181 13.1074945,12.2568978 L13.1083464,13.1094044 L0.886528345,13.1102151 L0.886528345,12.2238105 C0.886528345,11.8757479 1.14699474,11.7673897 1.25077732,11.7194488 L5.08656957,9.90782231 C5.36154601,9.78213725 5.55128965,9.52167085 5.58807318,9.22069724 C5.62528266,8.92054805 5.50415947,8.62206148 5.26806886,8.43271632 C4.36102583,7.70427332 3.93803588,6.10201201 3.93803588,5.24866716 L3.93803588,3.06512445 C3.93802214,2.15225542 5.5268589,0.882200063 6.99701829,0.882200063 M6.99701829,0.008203125 C5.06830834,0.008203125 3.06443742,1.61872252 3.06443742,3.06512445 L3.06443742,5.24865342 C3.06443742,6.20285411 3.49978015,8.1333366 4.72148241,9.11400165 L0.885648948,10.9256419 C0.885648948,10.9256419 0.0124901853,11.3142529 0.0124901853,11.7987869 L0.0124901853,13.1101877 C0.0124901853,13.5922346 0.403588254,13.9833602 0.885648948,13.9833602 L13.1083052,13.9833602 C13.5903659,13.9833602 13.9810517,13.5922209 13.9810517,13.1101877 L13.9810517,11.7987869 C13.9810517,11.2853015 13.1083052,10.9256419 13.1083052,10.9256419 L9.30720791,9.12225974 C10.5169147,8.168856 10.9261915,6.29748547 10.9261915,5.24865342 L10.9261915,3.06512445 C10.9262052,1.61873626 8.92520611,0.008203125 6.99701829,0.008203125 L6.99701829,0.008203125 Z"
                              id="形状"></path>
                    </g>
                </g>
            </g>
        </g>
    </g>
</svg>