<?xml version="1.0" encoding="UTF-8"?>
<svg width="18px" height="18px" viewBox="0 0 18 18" version="1.1" xmlns="http://www.w3.org/2000/svg"
     xmlns:xlink="http://www.w3.org/1999/xlink">
    <!-- Generator: Sketch 64 (93537) - https://sketch.com -->
    <title>应用</title>
    <desc>Created with Sketch.</desc>
    <g id="组件&amp;布局" stroke="none" stroke-width="1" fill-rule="evenodd" >
        <g id="顶部导航栏说明" transform="translate(-1286.000000, -162.000000)">
            <g id="编组-9" transform="translate(98.000000, 143.000000)">
                <g id="编组-14备份" transform="translate(1188.000000, 17.000000)">
                    <g id="产品" transform="translate(0.000000, 2.000000)">
                        <rect id="Rectangle-19" fill-opacity="0" x="0" y="0" width="18" height="18"></rect>
                        <g transform="translate(1.125000, 1.125000)" fill-rule="nonzero" id="形状">
                            <path d="M14.0332663,5.33925621 C13.757641,5.33925621 13.4583907,5.46525636 13.3875156,5.48888139 L9.52876109,7.52850876 C8.78063522,7.82775911 8.30813467,8.44988483 8.30813467,9.09563558 L8.30813467,14.4978919 C8.30813467,15.1987677 8.82788527,15.6948933 9.55238612,15.6948933 L10.1036368,15.6948933 L10.1036368,15.5925181 C10.1272618,15.5925181 10.1745118,15.5688931 10.2060119,15.5452681 L14.0883914,13.5056407 C14.8128922,13.2063904 15.2853928,12.5842646 15.2853928,11.9385139 L15.2853928,6.53625761 C15.2775178,5.86688183 14.7262671,5.33925621 14.0332663,5.33925621 L14.0332663,5.33925621 Z M14.0568914,11.8361388 C14.0568914,12.009389 13.8600161,12.2613893 13.5371408,12.4110144 L9.89888652,14.3325167 C9.7965114,14.3797667 9.77288637,14.3797667 9.72563632,14.3797667 L9.70201129,14.3797667 C9.59963617,14.3797667 9.55238612,14.3325167 9.55238612,14.2537666 L9.55238612,9.1980107 C9.55238612,9.0247605 9.74926134,8.77276021 10.0721367,8.62313503 L13.710391,6.70950781 C13.781266,6.68588278 13.8600161,6.66225775 13.8836412,6.66225775 C13.9860163,6.66225775 14.0568914,6.70950781 14.0568914,6.7882579 L14.0568914,11.8361388 L14.0568914,11.8361388 Z M6.26063229,7.45763368 L2.42550282,5.48888139 L2.40187779,5.48888139 C2.35462774,5.46525636 2.05537739,5.33925621 1.75612704,5.33925621 C1.0316262,5.33925621 0.511875596,5.85900682 0.511875596,6.53625761 L0.511875596,11.9857639 C0.511875596,12.6551397 1.13400132,13.2772654 1.70887699,13.5528908 L5.52038142,15.5452681 L5.56763148,15.5452681 C5.59125651,15.5452681 5.61488153,15.5688931 5.6700066,15.5688931 C5.81963177,15.6161432 5.96925695,15.6712682 6.1897572,15.6712682 L6.70950781,15.6476432 L6.70950781,15.5216431 C6.83550795,15.474393 6.9615081,15.3720179 7.05600821,15.2696428 C7.3080085,15.0491425 7.42613364,14.7183921 7.42613364,14.3955168 L7.42613364,9.04051052 C7.45763368,8.37900975 6.85913298,7.733259 6.26063229,7.45763368 Z M6.26063229,14.2301416 C6.26063229,14.2773916 6.26063229,14.3010166 6.21338223,14.3325167 C6.16613218,14.3561417 6.14250715,14.3797667 6.08738208,14.3797667 L6.06375706,14.3797667 C6.016507,14.3797667 5.96138194,14.3797667 5.89050685,14.3325167 C5.86688183,14.3325167 5.8432568,14.3325167 5.81963177,14.3088917 L2.30737768,12.4897645 L2.28375266,12.4897645 C1.96087728,12.3401394 1.73250202,12.017264 1.73250202,11.9148889 L1.73250202,6.7882579 C1.73250202,6.71738282 1.77975207,6.66225775 1.90575222,6.66225775 C1.92937725,6.66225775 2.00812734,6.68588278 2.07900242,6.70950781 L5.68575662,8.55225995 L5.70938164,8.55225995 C6.03225702,8.70188513 6.26063229,9.0247605 6.26063229,9.12713562 L6.26063229,14.2301416 Z M13.6316409,4.69350546 L13.6552659,4.69350546 C14.3246417,4.34700506 14.4033918,3.81937944 14.4033918,3.57525416 C14.4033918,3.33112888 14.3010166,2.80350326 13.6552659,2.45700286 L8.97751045,0.307125357 C8.6782601,0.157500183 8.30813467,0.0866251008 7.93013423,0.0866251008 C7.50488373,0.0866251008 7.11113327,0.157500183 6.81188293,0.307125357 L2.07900242,2.52787794 L2.05537739,2.52787794 C1.38600161,2.89800337 1.30725152,3.40200396 1.30725152,3.64612924 C1.30725152,4.14225482 1.6301269,4.56750531 2.18137754,4.74075552 L6.81188293,6.88275801 C6.9615081,6.95363309 7.1347583,7.00875816 7.33163353,7.05600821 L7.33163353,7.10325827 L7.85138414,7.10325827 C8.02463434,7.10325827 8.57588498,7.10325827 8.92238538,6.88275801 C8.93026039,6.88275801 13.6316409,4.69350546 13.6316409,4.69350546 L13.6316409,4.69350546 Z M8.37900975,5.81175676 C8.3317597,5.83538179 8.15850949,5.88263185 7.9065092,5.88263185 L7.85925915,5.88263185 C7.63875889,5.88263185 7.41038362,5.83538179 7.28438348,5.78025673 L2.87437834,3.76425438 L2.80350326,3.74062935 C2.70112814,3.71700433 2.65387809,3.66975427 2.65387809,3.63825423 C2.65387809,3.59100418 2.75625321,3.53587911 2.82712829,3.46500403 L7.26075845,1.40175163 C7.43400865,1.35450158 7.68600894,1.29937651 7.9065092,1.29937651 C8.12700946,1.29937651 8.3317597,1.34662657 8.48138487,1.40175163 L12.8362649,3.37050392 C12.9386401,3.41775398 13.0095151,3.49650407 13.0095151,3.54375412 C13.0095151,3.59100418 12.90714,3.66975427 12.8362649,3.71700433 L8.40263478,5.78025673 C8.40263478,5.78813174 8.37900975,5.81175676 8.37900975,5.81175676 Z"></path>
                        </g>
                    </g>
                </g>
            </g>
        </g>
    </g>
</svg>