<?xml version="1.0" encoding="UTF-8"?>
<svg width="18px" height="18px" viewBox="0 0 18 18" version="1.1" xmlns="http://www.w3.org/2000/svg"
     xmlns:xlink="http://www.w3.org/1999/xlink">
    <!-- Generator: Sketch 64 (93537) - https://sketch.com -->
    <title>控制台</title>
    <desc>Created with Sketch.</desc>
    <g id="组件&amp;布局" stroke="none" stroke-width="1"  fill-rule="evenodd">
        <g id="布局方式一备份-2" transform="translate(-1010.000000, -19.000000)">
            <g id="编组-9">
                <g id="编组-3" transform="translate(1010.000000, 17.000000)">
                    <g id="控制台" transform="translate(0.000000, 2.000000)">
                        <rect id="Rectangle-19" fill-opacity="0" x="0" y="0" width="18"
                              height="18"></rect>
                        <g transform="translate(1.125000, 2.250000)"  fill-rule="nonzero" id="形状">
                            <path d="M13.6595488,11.1921093 L1.96922399,11.1921093 L1.96922391,11.1921093 C0.881648552,11.1921093 -8.60777021e-08,10.3104546 -8.60777021e-08,9.22288501 C-8.60777021e-08,9.22288501 -8.60777021e-08,9.22288501 -8.60777021e-08,9.22288501 L-8.60777021e-08,1.96922399 L-8.60777021e-08,1.96922429 C-8.60777021e-08,0.881648935 0.881652878,2.97345853e-07 1.96922391,2.97345853e-07 L13.6595488,2.97345853e-07 L13.6595487,2.97345853e-07 C14.747124,2.97345853e-07 15.6287727,0.881653262 15.6287727,1.96922429 C15.6287727,1.96922429 15.6287727,1.96922429 15.6287727,1.96922429 L15.6287727,9.22288531 L15.6287727,9.22288531 C15.6287727,10.3104607 14.7471183,11.1921093 13.6595487,11.1921093 L13.6595488,11.1921093 Z M1.96922399,1.31248426 L1.96922398,1.31248426 C1.60651713,1.31248426 1.31248569,1.6065157 1.31248569,1.96922255 L1.31248569,9.22288357 C1.31248569,9.58522118 1.60688492,9.87863676 1.96922398,9.87863676 L13.6595488,9.87863676 L13.6595488,9.87863676 C14.0218706,9.87863676 14.3157434,9.58520532 14.3162871,9.22288357 L14.3162871,1.96922255 L14.3162871,1.96922256 C14.3162871,1.60651572 14.0222557,1.31248426 13.6595488,1.31248426 L1.96922397,1.31248426 L1.96922399,1.31248426 Z M4.41795712,9.92195642 L4.41795712,8.038391 C4.41795712,7.66423801 4.60503434,7.47716079 4.97918733,7.47716079 L4.97918733,7.47716079 C5.35334032,7.47716079 5.54041754,7.66423801 5.54041754,8.038391 L5.54041754,9.92195642 C5.54041754,10.2961094 5.35334032,10.4831866 4.97918733,10.4831866 L4.97918733,10.4831866 C4.60503434,10.4831866 4.41795712,10.2961094 4.41795712,9.92195642 Z M7.25956005,10.0164794 L7.25956005,5.40257056 C7.25956005,5.03038632 7.44565217,4.84429419 7.81783641,4.84429419 L7.81685181,4.84429419 C8.18903605,4.84429419 8.37512817,5.03038632 8.37512817,5.40257056 L8.37512817,10.0164794 C8.37512817,10.3886636 8.18903605,10.5747558 7.81685181,10.5747558 L7.81783641,10.5747558 C7.44565217,10.5747558 7.25956005,10.3886636 7.25956005,10.0164794 L7.25956005,10.0164794 Z M10.1031245,10.2399864 L10.1031245,6.58411505 C10.1031245,6.21193081 10.2892166,6.02583869 10.6614009,6.02583869 L10.6604163,6.02583869 C11.0326005,6.02583869 11.2186926,6.21193081 11.2186926,6.58411505 L11.2186926,10.2399864 C11.2186926,10.6121706 11.0326005,10.7982628 10.6604163,10.7982628 L10.6614009,10.7982628 C10.2892166,10.7982628 10.1031245,10.6121706 10.1031245,10.2399864 L10.1031245,10.2399864 Z M4.53611085,12.6355561 L11.0995562,12.6355561 C11.5373813,12.6355561 11.7562945,12.8544694 11.7562945,13.2922944 L11.7562945,13.2913098 C11.7562945,13.7291348 11.5373813,13.9480481 11.0995562,13.9480481 L4.53611085,13.9480481 C4.09828581,13.9480481 3.87937256,13.7291348 3.87937256,13.2913098 L3.87937256,13.2922944 C3.87937256,12.8544694 4.09828581,12.6355561 4.53611085,12.6355561 Z"></path>
                        </g>
                    </g>
                </g>
            </g>
        </g>
    </g>
</svg>