<?xml version="1.0" encoding="UTF-8"?>
<svg width="30px" height="30px" viewBox="0 0 30 30" version="1.1" xmlns="http://www.w3.org/2000/svg"
     xmlns:xlink="http://www.w3.org/1999/xlink">
    <!-- Generator: Sketch 64 (93537) - https://sketch.com -->
    <title>数据协同</title>
    <desc>Created with Sketch.</desc>
    <g id="组件&amp;布局" stroke="none" stroke-width="1" fill-rule="evenodd">
        <g id="顶部导航栏说明" transform="translate(-1476.000000, -432.000000)">
            <g id="编组-39备份" transform="translate(1349.000000, 402.000000)">
                <g id="编组-42" transform="translate(127.000000, 30.000000)">
                    <g id="编组-41">
                        <rect fill-opacity="0" id="矩形" x="0" y="0" width="30" height="30"></rect>
                        <g transform="translate(1.125000, 2.250000)" fill-rule="nonzero" id="形状">
                            <path d="M21.3033329,12.7520277 C23.0751635,12.7520277 24.7540087,13.0163502 26.0294026,13.4969818 C28.0546117,14.2595358 28.356602,15.2924949 28.356602,15.8399613 C28.356602,15.8643734 28.3560014,15.8897497 28.3546744,15.9160235 L28.3541589,24.7561764 C28.2989304,25.3256676 27.8997235,26.261622 26.0269845,26.9679045 C24.751957,27.44755 23.0752826,27.7124578 21.3043362,27.7128581 L21.3043515,27.712858 L21.2988872,27.7128582 L20.8961282,27.7081781 C19.2751174,27.6708251 17.7545519,27.4109892 16.5772882,26.9679045 C14.7045261,26.2621752 14.304806,25.3262839 14.2552399,24.7560037 L14.2494656,24.7561764 L14.2494656,15.8399613 C14.2494906,15.2924949 14.5520791,14.2601341 16.576665,13.4969818 C17.8526821,13.0163502 19.5309291,12.7520277 21.3033329,12.7520277 Z M26.0269845,22.8731624 C24.751957,23.3528079 23.0752826,23.6177158 21.3043362,23.618116 L21.3043515,23.618091 L21.2988872,23.6178582 L20.8961282,23.6134217 C19.2751174,23.5761503 17.7545519,23.3168224 16.5772882,22.8731624 C16.3074306,22.7714696 16.0681587,22.6649978 15.856113,22.5555309 L15.8578365,24.6243268 L15.8578365,24.6243268 C15.8578365,24.86554 16.2698136,25.2635319 17.190966,25.6104941 C18.2601648,26.0138581 19.7587547,26.2447381 21.3023304,26.2448381 C22.8442708,26.2448381 24.3432781,26.0139455 25.4126834,25.6104941 C26.3338109,25.2641302 26.745788,24.86554 26.745788,24.6243018 L26.7458872,24.6118582 L26.748122,22.5555021 C26.5360972,22.6649867 26.2968388,22.7714696 26.0269845,22.8731624 Z M12.3130038,2.21285824 C15.049114,2.21285824 17.6339299,2.61875264 19.5910828,3.35640252 C21.7742422,4.17851193 22.9761204,5.35182147 22.9761204,6.66064519 L22.9755236,6.72021967 C22.9759203,6.72968319 22.9761204,6.73919252 22.9761204,6.74874436 L22.9761204,11.0822816 C22.9761204,11.4875777 22.6163946,11.8162918 22.1722341,11.8162918 C21.728672,11.8162918 21.3683728,11.4875777 21.3683728,11.0822816 L21.368683,9.08179991 C20.8801839,9.40726673 20.2854815,9.70415105 19.5916811,9.96548615 C17.6339299,10.7025377 15.049114,11.1090304 12.3130038,11.1090304 C9.57689366,11.1090304 6.99207775,10.7025377 5.03492485,9.96548615 C4.34139631,9.70432504 3.74689424,9.40766203 3.25849053,9.08244994 L3.25823317,14.0590316 L3.25823317,14.0590316 C3.25823317,14.7152633 4.15144017,15.4431909 5.64862761,16.0070605 C7.41559697,16.6724162 9.78225897,17.0393964 12.3130038,17.0393964 C12.7571643,17.0393964 13.1174884,17.3675122 13.1174884,17.7734066 C13.1174884,18.1786778 12.7571643,18.5074169 12.3130038,18.5074169 C9.57689366,18.5067937 6.99207775,18.1008993 5.03492485,17.3644709 C4.34139631,17.1031197 3.74689424,16.8063245 3.25849053,16.4810213 L3.25823317,20.5186159 L3.25823317,20.5186159 C3.25823317,21.1748476 4.15144017,21.9027751 5.64862761,22.4660714 C7.41559697,23.1320005 9.78225897,23.4990056 12.3130038,23.4990056 C12.7571643,23.4990056 13.1174884,23.8271214 13.1174884,24.2324175 C13.1174884,24.6377136 12.7571643,24.9664029 12.3130038,24.9664029 C9.57689366,24.9664029 6.99207775,24.5605085 5.03492485,23.8234818 C2.96782498,23.0444867 1.78044722,21.9511758 1.66004403,20.7261885 L1.64988721,20.7264243 L1.64988721,6.66064519 C1.64988721,5.35182147 2.8517654,4.17851193 5.03492485,3.35640252 C6.99207775,2.61815434 9.57689366,2.21285824 12.3130038,2.21285824 Z M15.856113,17.8654889 L15.8578365,20.530183 L15.8578365,20.530183 C15.8578365,20.7707979 16.2698136,21.1693881 17.190966,21.5163503 C18.2601648,21.9191162 19.7587547,22.149996 21.3023304,22.150096 C22.8442708,22.150096 24.3432781,21.9192034 25.4126834,21.5163503 C26.3338109,21.1693881 26.745788,20.7707979 26.745788,20.530158 L26.7458872,20.5178582 L26.7480885,17.8665775 C26.536671,17.9755988 26.2982169,18.081641 26.0294026,18.1829407 C24.7534104,18.6635723 23.0751635,18.9284931 21.3033579,18.9284931 C19.5309291,18.9284931 17.8526572,18.6635723 16.5772882,18.1829407 C16.3074306,18.0813276 16.0681587,17.9749143 15.856113,17.8654889 Z M21.3033329,14.220047 C19.7593787,14.219425 18.2603963,14.4503176 17.190966,14.8537939 C16.2698385,15.2001329 15.8578615,15.5993463 15.8578615,15.8399613 C15.8578615,16.0811745 16.2698136,16.4791664 17.190966,16.8261286 C18.2603963,17.2289816 19.7594036,17.4604726 21.3033329,17.4604726 C22.8466889,17.4604726 24.3456962,17.2295799 25.4157248,16.8261286 C26.3117065,16.4890253 26.7264641,16.1023968 26.7479474,15.8595671 L26.7463863,15.8399613 L26.7488294,15.8399363 C26.7488294,15.5993463 26.336254,15.2007561 25.4157248,14.8537939 C24.3462945,14.4509409 22.8472872,14.220047 21.3033329,14.220047 Z M12.3130038,3.68087872 C9.78225897,3.68087872 7.41559697,4.04726061 5.64862761,4.71321461 C4.1520634,5.27710918 3.2582581,6.00503673 3.2582581,6.66064519 C3.2582581,7.31687686 4.1514651,8.04480442 5.64862761,8.60867406 C7.41559697,9.27402976 9.78225897,9.64100995 12.3130038,9.64100995 C14.8437487,9.64100995 17.2104107,9.27400483 18.9779783,8.60807576 C20.4745425,8.04480442 21.3683728,7.31687686 21.3683728,6.66062026 C21.3683728,6.0050118 20.4745425,5.27708425 18.9779783,4.71321461 C17.2104107,4.04726061 14.8437487,3.68087872 12.3130038,3.68087872 Z"
                                  id="形状结合"></path>
                        </g>
                    </g>
                </g>
            </g>
        </g>
    </g>
</svg>