<?xml version="1.0" encoding="UTF-8"?>
<svg width="24px" height="24px" viewBox="0 0 24 24" version="1.1" xmlns="http://www.w3.org/2000/svg" xmlns:xlink="http://www.w3.org/1999/xlink">
    <title>中枢logo</title>
    <g id="控件" stroke="none" stroke-width="1" fill="none" fill-rule="evenodd">
        <g id="导航栏" transform="translate(-16.000000, -16.000000)" fill="#FFFFFF">
            <g id="中枢logo" transform="translate(16.000000, 16.000000)">
                <path d="M6.38144465,9.93820085 L6.38144465,18.241259 C6.38144465,18.4190003 6.47544189,18.5830791 6.62793198,18.6718853 L13.5650816,22.708121 C13.7293213,22.8036296 13.729449,23.042981 13.5652093,23.1386185 L12.2008445,23.933492 C12.0484821,24.0221693 11.860743,24.0221693 11.7083807,23.933492 L4.89383615,19.9627332 C4.5891114,19.7851208 4.40124463,19.457092 4.40137222,19.1018672 L4.40137222,10.948452 C4.40137222,10.7709685 4.49524187,10.6067608 4.64760425,10.5180835 L6.0120968,9.72295213 C6.17633654,9.62731468 6.38144465,9.74692594 6.38144465,9.93820085 Z M7.39918189,15.8402433 L14.5241983,19.9918369 C14.6765606,20.080772 14.8644274,20.0806431 15.0167898,19.991708 L21.9489585,15.9467077 C22.1131983,15.8509413 22.3184341,15.9705526 22.3184341,16.1618275 L22.3184341,17.7517035 C22.3184341,17.9293159 22.2245646,18.0935236 22.0720745,18.182201 L15.25753,22.1529598 C14.9528052,22.3304433 14.5773271,22.3304433 14.2726024,22.1529598 L7.27606594,18.0761233 C7.12370357,17.9873171 7.02983404,17.8232383 7.02983404,17.6457547 L7.02983404,16.0554921 C7.02983404,15.8642172 7.23494215,15.7446059 7.39918189,15.8402433 Z M20.7079395,5.0227966 L22.0721767,5.81767016 C22.2246667,5.90660526 22.3184086,6.07055518 22.3184086,6.24816759 L22.3184086,14.1895564 C22.3184086,14.5446523 22.1306695,14.8728099 21.8259448,15.0504223 L14.8292806,19.1271299 C14.6770459,19.2158072 14.4891792,19.2158072 14.3369445,19.1271299 L12.9723242,18.3319986 C12.8080845,18.23649 12.8080845,17.9972675 12.9723242,17.90163 L20.0973406,13.7500365 C20.2498307,13.6612303 20.3437002,13.4970226 20.3435725,13.3192813 L20.3385917,5.23817421 C20.338464,5.04677041 20.5438275,4.92703026 20.7079395,5.0227966 Z M9.57262542,4.87240606 L10.9372457,5.66740851 C11.1013577,5.76304596 11.1013577,6.00226849 10.9372457,6.09790594 L3.81222932,10.2493706 C3.65973923,10.3381768 3.5658697,10.5025134 3.56599742,10.6801258 L3.57097825,18.7613618 C3.57110596,18.9526367 3.36587014,19.0723768 3.2016304,18.9767394 L1.83739327,18.1817369 C1.6850309,18.0929307 1.59116137,17.9288519 1.59116137,17.7512395 L1.59116137,9.80997964 C1.59116137,9.45475481 1.77890043,9.12659718 2.08362518,8.94898477 L9.08016162,4.87240606 C9.23252399,4.78359985 9.42026304,4.78359985 9.57262542,4.87240606 Z M12.1522593,6.60703575 L12.2451994,6.65064403 L16.3999796,9.07161209 C16.5540022,9.16121006 16.6572626,9.31624279 16.6836223,9.490607 L16.6902727,9.57918661 L16.6902727,14.4208649 C16.6902727,14.6003923 16.6090156,14.7681774 16.4726397,14.8783604 L16.3999796,14.9284395 L12.2451994,17.3492786 C12.0954552,17.4366026 11.9167093,17.4511566 11.7572978,17.3929406 L11.6643578,17.3492786 L7.50970528,14.9284395 C7.35568262,14.838731 7.2523284,14.6837772 7.22594195,14.5094378 L7.21928445,14.4208649 L7.21928445,9.57918661 C7.21928445,9.39965924 7.30063544,9.23177944 7.43703808,9.12165053 L7.50970528,9.07161209 L11.6643578,6.65064403 C11.814102,6.56342748 11.9928479,6.54889139 12.1522593,6.60703575 Z M11.7719943,8.81082173 L11.6859414,8.85120771 L9.38709581,10.1906476 C9.24852651,10.2714196 9.15430222,10.4092977 9.12674327,10.5651966 L9.11838631,10.6605859 L9.11838631,13.3394657 C9.11838631,13.5010096 9.18951571,13.6523497 9.30945419,13.7544007 L9.38709581,13.8094039 L11.6859414,15.1488438 C11.8246171,15.2296158 11.9899885,15.2430778 12.1375628,15.1892298 L12.2236158,15.1488438 L14.5224613,13.8094039 C14.6610306,13.7286319 14.7553436,13.5907539 14.7829321,13.4348549 L14.7912986,13.3394657 L14.7912986,10.6605859 C14.7912986,10.4990419 14.7200805,10.3477019 14.6001124,10.2456509 L14.5224613,10.1906476 L12.2236158,8.85120771 C12.0849401,8.77043574 11.9195686,8.75697374 11.7719943,8.81082173 Z M12.1229751,0.0295591053 L12.2017768,0.066507987 L19.016449,4.03726681 C19.2873154,4.19514452 19.4656478,4.47197152 19.5019332,4.78093475 L19.5087851,4.89813279 L19.5087851,13.051548 C19.5087851,13.1994509 19.4435979,13.3381345 19.3337701,13.4315719 L19.2626809,13.4819165 L17.8980606,14.2770479 C17.7521833,14.3621735 17.573813,14.2771243 17.5359761,14.1227445 L17.5287128,14.0617992 L17.5287128,5.75874099 C17.5287128,5.61073064 17.4634369,5.47202912 17.3534317,5.37858879 L17.2822254,5.32824355 L10.3452036,1.29187898 C10.201382,1.20830899 10.1834043,1.01470799 10.2911849,0.903457553 L10.3450758,0.861381544 L11.709313,0.066507987 C11.8362816,-0.00738977634 11.9878174,-0.0197060702 12.1229751,0.0295591053 Z M12.1284838,10.0346224 L12.2102442,10.0730213 L13.4807395,10.8132449 C13.612391,10.8900427 13.7020034,11.0209928 13.7282172,11.1690987 L13.7361668,11.2597249 L13.7361668,12.7403009 C13.7361668,12.8937892 13.6684963,13.037521 13.5545148,13.1344999 L13.4807395,13.1867809 L12.2102442,13.9270045 C12.0784863,14.0038023 11.921363,14.0166019 11.78115,13.9654034 L11.6993896,13.9270045 L10.4288943,13.1867809 C10.2971364,13.1099831 10.2075949,12.9790329 10.1814077,12.8309271 L10.173467,12.7403009 L10.173467,11.2597249 C10.173467,11.1062366 10.2410488,10.9625048 10.3550746,10.8655259 L10.4288943,10.8132449 L11.6993896,10.0730213 C11.8311475,9.99622348 11.9882708,9.98342384 12.1284838,10.0346224 Z M9.63760612,1.84745268 L16.6340148,5.92416027 C16.7865049,6.01296648 16.8803745,6.17704529 16.8803745,6.35465771 L16.8803745,7.9447915 C16.8803745,8.1360664 16.6752664,8.25567767 16.5110266,8.16004021 L9.38601025,4.00844669 C9.23352016,3.91951159 9.0457811,3.91964048 8.89329101,4.00857558 L1.96124996,8.05357588 C1.79701022,8.14934222 1.5917744,8.02973096 1.5917744,7.83845605 L1.5917744,6.24858005 C1.5917744,6.07096763 1.68564393,5.90688882 1.8380063,5.81808261 L8.65267851,1.84745268 C8.95740326,1.66984026 9.33288137,1.66984026 9.63760612,1.84745268 Z" id="形状结合"></path>
            </g>
        </g>
    </g>
</svg>