<?xml version="1.0" encoding="UTF-8"?>
<svg width="350px" height="131px" viewBox="0 0 350 131" version="1.1" xmlns="http://www.w3.org/2000/svg" xmlns:xlink="http://www.w3.org/1999/xlink">
    <!-- Generator: Sketch 64 (93537) - https://sketch.com -->
    <title>Group</title>
    <desc>Created with Sketch.</desc>
    <defs>
        <rect id="path-1" x="0" y="0" width="102" height="64.025" rx="2"></rect>
        <filter x="-2.0%" y="-1.6%" width="103.9%" height="106.2%" filterUnits="objectBoundingBox" id="filter-2">
            <feOffset dx="0" dy="1" in="SourceAlpha" result="shadowOffsetOuter1"></feOffset>
            <feGaussianBlur stdDeviation="0.5" in="shadowOffsetOuter1" result="shadowBlurOuter1"></feGaussianBlur>
            <feColorMatrix values="0 0 0 0 0.874509804   0 0 0 0 0.894117647   0 0 0 0 0.933333333  0 0 0 1 0" type="matrix" in="shadowBlurOuter1"></feColorMatrix>
        </filter>
        <rect id="path-3" x="5" y="5.91" width="92" height="8.865" rx="1"></rect>
        <filter x="-3.8%" y="-28.2%" width="107.6%" height="179.0%" filterUnits="objectBoundingBox" id="filter-4">
            <feOffset dx="0" dy="1" in="SourceAlpha" result="shadowOffsetOuter1"></feOffset>
            <feGaussianBlur stdDeviation="1" in="shadowOffsetOuter1" result="shadowBlurOuter1"></feGaussianBlur>
            <feColorMatrix values="0 0 0 0 0.928767515   0 0 0 0 0.94275449   0 0 0 0 0.966066114  0 0 0 1 0" type="matrix" in="shadowBlurOuter1"></feColorMatrix>
        </filter>
        <linearGradient x1="50%" y1="0%" x2="50%" y2="50%" id="linearGradient-5">
            <stop stop-color="#EEF2FA" offset="0%"></stop>
            <stop stop-color="#FFFFFF" stop-opacity="0" offset="100%"></stop>
        </linearGradient>
    </defs>
    <g id="页面-1" stroke="none" stroke-width="1" fill="none" fill-rule="evenodd">
        <g id="列表空页面_普通状态" transform="translate(-675.000000, -447.000000)">
            <g id="空状态-表" transform="translate(675.000000, 447.000000)">
                <g id="Group">
                    <g id="Group-4" transform="translate(120.000000, 0.000000)">
                        <rect id="Rectangle-3" fill="#EEF2FA" x="0" y="0" width="110" height="72.89" rx="3"></rect>
                        <g id="Group-3" transform="translate(4.000000, 4.925000)">
                            <g id="Rectangle-3">
                                <use fill="black" fill-opacity="1" filter="url(#filter-2)" xlink:href="#path-1"></use>
                                <use fill="#FFFFFF" fill-rule="evenodd" xlink:href="#path-1"></use>
                            </g>
                            <g id="Rectangle-3">
                                <use fill="black" fill-opacity="1" filter="url(#filter-4)" xlink:href="#path-3"></use>
                                <use fill="#DDE2EC" fill-rule="evenodd" xlink:href="#path-3"></use>
                            </g>
                            <g id="表格" transform="translate(7.000000, 20.685000)" fill="#E9ECF3">
                                <rect id="Rectangle-3-Copy" x="0" y="0" width="27.7391304" height="3.94" rx="1"></rect>
                                <path d="M31.1304348,0 L56.8695652,0 C57.42185,-2.06356265e-15 57.8695652,0.44771525 57.8695652,1 L57.8695652,2.94 C57.8695652,3.49228475 57.42185,3.94 56.8695652,3.94 L31.1304348,3.94 C30.57815,3.94 30.1304348,3.49228475 30.1304348,2.94 L30.1304348,1 C30.1304348,0.44771525 30.57815,1.01453063e-16 31.1304348,0 Z" id="Rectangle-3-Copy-2"></path>
                                <path d="M61.2608696,0 L87,0 C87.5522847,-2.12475365e-16 88,0.44771525 88,1 L88,2.94 C88,3.49228475 87.5522847,3.94 87,3.94 L61.2608696,3.94 C60.7085848,3.94 60.2608696,3.49228475 60.2608696,2.94 L60.2608696,1 C60.2608696,0.44771525 60.7085848,-9.5692398e-18 61.2608696,0 Z" id="Rectangle-3-Copy-3"></path>
                            </g>
                            <g id="表格" transform="translate(7.000000, 31.520000)" fill="#E9ECF3">
                                <rect id="Rectangle-3-Copy" x="0" y="0" width="27.7391304" height="3.94" rx="1"></rect>
                                <path d="M31.1304348,0 L56.8695652,0 C57.42185,-2.12475365e-16 57.8695652,0.44771525 57.8695652,1 L57.8695652,2.94 C57.8695652,3.49228475 57.42185,3.94 56.8695652,3.94 L31.1304348,3.94 C30.57815,3.94 30.1304348,3.49228475 30.1304348,2.94 L30.1304348,1 C30.1304348,0.44771525 30.57815,-9.5692398e-18 31.1304348,0 Z" id="Rectangle-3-Copy-2"></path>
                                <path d="M61.2608696,0 L87,0 C87.5522847,1.74963422e-15 88,0.44771525 88,1 L88,2.94 C88,3.49228475 87.5522847,3.94 87,3.94 L61.2608696,3.94 C60.7085848,3.94 60.2608696,3.49228475 60.2608696,2.94 L60.2608696,1 C60.2608696,0.44771525 60.7085848,-9.5692398e-18 61.2608696,0 Z" id="Rectangle-3-Copy-3"></path>
                            </g>
                            <g id="表格" transform="translate(7.000000, 43.340000)" fill="#E9ECF3">
                                <rect id="Rectangle-3-Copy" x="0" y="0" width="27.7391304" height="3.94" rx="1"></rect>
                                <path d="M31.1304348,0 L56.8695652,0 C57.42185,-2.12475365e-16 57.8695652,0.44771525 57.8695652,1 L57.8695652,2.94 C57.8695652,3.49228475 57.42185,3.94 56.8695652,3.94 L31.1304348,3.94 C30.57815,3.94 30.1304348,3.49228475 30.1304348,2.94 L30.1304348,1 C30.1304348,0.44771525 30.57815,-9.5692398e-18 31.1304348,0 Z" id="Rectangle-3-Copy-2"></path>
                                <path d="M61.2608696,0 L87,0 C87.5522847,1.74963422e-15 88,0.44771525 88,1 L88,2.94 C88,3.49228475 87.5522847,3.94 87,3.94 L61.2608696,3.94 C60.7085848,3.94 60.2608696,3.49228475 60.2608696,2.94 L60.2608696,1 C60.2608696,0.44771525 60.7085848,-9.5692398e-18 61.2608696,0 Z" id="Rectangle-3-Copy-3"></path>
                            </g>
                            <g id="表格" transform="translate(7.000000, 54.175000)" fill="#E9ECF3">
                                <rect id="Rectangle-3-Copy" x="0" y="0" width="27.7391304" height="3.94" rx="1"></rect>
                                <path d="M31.1304348,0 L56.8695652,0 C57.42185,-1.01453063e-16 57.8695652,0.44771525 57.8695652,1 L57.8695652,2.94 C57.8695652,3.49228475 57.42185,3.94 56.8695652,3.94 L31.1304348,3.94 C30.57815,3.94 30.1304348,3.49228475 30.1304348,2.94 L30.1304348,1 C30.1304348,0.44771525 30.57815,1.01453063e-16 31.1304348,0 Z" id="Rectangle-3-Copy-2"></path>
                                <path d="M61.2608696,0 L87,0 C87.5522847,1.86065652e-15 88,0.44771525 88,1 L88,2.94 C88,3.49228475 87.5522847,3.94 87,3.94 L61.2608696,3.94 C60.7085848,3.94 60.2608696,3.49228475 60.2608696,2.94 L60.2608696,1 C60.2608696,0.44771525 60.7085848,1.01453063e-16 61.2608696,0 Z" id="Rectangle-3-Copy-3"></path>
                            </g>
                        </g>
                    </g>
                    <ellipse id="Oval-2" fill="url(#linearGradient-5)" cx="175" cy="131.4975" rx="175" ry="33.9825"></ellipse>
                </g>
            </g>
        </g>
    </g>
</svg>